<?xml version="1.0" encoding="UTF-8" standalone="no"?>
<svg
   xmlns:dc="http://purl.org/dc/elements/1.1/"
   xmlns:cc="http://creativecommons.org/ns#"
   xmlns:rdf="http://www.w3.org/1999/02/22-rdf-syntax-ns#"
   xmlns:svg="http://www.w3.org/2000/svg"
   xmlns="http://www.w3.org/2000/svg"
   xmlns:sodipodi="http://sodipodi.sourceforge.net/DTD/sodipodi-0.dtd"
   xmlns:inkscape="http://www.inkscape.org/namespaces/inkscape"
   sodipodi:docname="dogHead.svg"
   inkscape:version="1.0 (6e3e5246a0, 2020-05-07)"
   width="500.0px"
   height="500.0px"
   viewBox="0 0 500.0 500.0"
   version="1.1"
   id="SVGRoot">
  <defs
     id="defs39">
    <clipPath
       clipPathUnits="userSpaceOnUse"
       id="clipPath69">
      <g
         id="g73"
         transform="matrix(0.13333333,0,0,-0.13333333,3998.2753,1656.2482)"
         style="fill:#ffffff;stroke:none">
        <path
           id="path71"
           d="m 6269,9672 c -14,-16 -22,-34 -69,-136 -16,-33 -58,-82 -132,-155 -61,-58 -153,-158 -206,-221 -54,-63 -151,-169 -217,-235 -71,-71 -146,-158 -183,-212 -34,-51 -68,-96 -75,-100 -7,-4 -48,-55 -91,-113 -43,-58 -91,-118 -106,-135 -15,-16 -66,-84 -114,-150 -48,-66 -109,-149 -136,-185 -27,-36 -72,-96 -100,-133 -29,-38 -68,-103 -87,-145 -19,-42 -48,-104 -63,-137 -30,-62 -62,-160 -101,-300 -19,-71 -22,-115 -28,-390 -3,-170 -10,-317 -15,-325 -5,-8 -35,-44 -66,-80 -31,-36 -80,-99 -108,-140 -28,-41 -69,-97 -92,-125 -22,-27 -73,-93 -112,-145 -39,-52 -95,-120 -122,-151 -28,-31 -64,-78 -81,-105 -16,-26 -118,-138 -226,-248 -109,-111 -215,-223 -235,-251 -50,-66 -85,-107 -223,-253 -64,-68 -141,-161 -172,-207 -31,-47 -97,-128 -147,-182 -262,-282 -260,-281 -302,-368 -23,-47 -45,-85 -49,-85 -4,0 -22,13 -41,30 -38,32 -80,38 -103,16 -8,-8 -19,-36 -26,-63 -17,-68 -63,-161 -102,-209 -100,-123 -113,-146 -111,-202 1,-30 11,-70 21,-90 10,-20 21,-63 24,-95 l 6,-59 -97,-106 c -54,-59 -111,-125 -127,-147 -16,-22 -34,-44 -41,-50 -11,-10 -63,-70 -211,-245 -124,-147 -226,-246 -294,-288 -121,-72 -202,-145 -270,-242 -138,-197 -136,-194 -251,-229 -57,-17 -119,-39 -138,-49 -46,-22 -150,-121 -208,-197 -25,-33 -51,-63 -57,-67 -5,-4 -59,-8 -120,-8 -115,0 -165,-10 -372,-76 L 0,1855 V 928 0 h 3356 3356 l -23,38 c -33,55 -99,154 -179,267 -75,107 -173,299 -195,380 -23,86 -85,269 -100,291 -7,11 -27,74 -44,140 -17,65 -38,147 -48,181 -9,34 -14,65 -11,68 4,4 43,-1 89,-10 71,-15 91,-15 143,-4 75,15 89,24 135,87 20,28 63,86 96,130 33,43 69,95 80,113 101,175 145,257 145,271 0,9 4,19 9,22 26,17 11,220 -19,250 -20,20 -9,43 53,101 64,62 63,61 196,337 47,98 69,133 98,155 20,15 77,70 127,120 49,51 93,93 97,93 4,0 35,-20 70,-45 81,-57 153,-91 327,-154 76,-27 169,-63 208,-81 38,-17 132,-56 208,-87 160,-63 250,-107 426,-205 208,-116 252,-146 389,-264 59,-52 212,-144 264,-159 27,-8 97,-22 155,-30 91,-14 132,-15 267,-5 304,21 402,44 515,120 67,45 91,78 116,155 9,28 20,54 24,59 13,13 76,-41 112,-97 60,-93 132,-274 153,-384 11,-55 27,-97 61,-155 59,-100 117,-174 154,-197 39,-23 133,-19 194,8 25,12 53,21 62,21 33,0 107,46 131,81 34,51 62,138 73,227 6,42 15,105 21,139 18,102 0,144 -132,298 -61,72 -123,149 -137,173 -15,23 -62,93 -105,155 -79,114 -93,135 -221,317 -81,116 -265,304 -406,416 -47,37 -112,92 -145,123 -87,80 -190,162 -354,282 -158,114 -221,166 -221,181 0,7 16,8 41,4 68,-11 401,-8 635,6 121,7 244,11 274,10 145,-5 369,43 542,118 85,36 100,47 177,127 46,49 96,104 110,123 14,20 46,53 71,75 95,82 142,131 159,165 18,35 71,210 71,234 0,7 10,33 23,57 50,94 119,260 124,297 4,31 0,49 -20,83 -36,61 -111,130 -182,169 -181,98 -272,143 -378,184 -65,25 -150,62 -190,81 -39,19 -79,35 -88,35 -8,0 -78,20 -156,44 -140,45 -271,76 -316,76 -13,0 -71,18 -129,39 -57,22 -149,51 -203,66 -55,14 -147,45 -205,67 -58,22 -136,46 -175,53 -112,20 -124,24 -254,87 -152,75 -193,113 -251,236 -11,24 -40,71 -64,105 -24,34 -71,118 -104,187 -66,138 -168,273 -261,343 -54,42 -245,151 -283,162 -49,15 -265,111 -358,160 -89,46 -347,137 -440,155 -52,10 -147,23 -210,29 -63,6 -164,16 -225,21 -327,31 -365,38 -365,67 0,15 -29,87 -76,188 -13,28 -41,79 -63,115 -79,129 -100,177 -116,266 -8,48 -15,108 -15,135 0,27 -7,95 -15,153 -19,122 -21,148 -35,326 -12,164 -26,243 -74,425 -63,234 -161,435 -234,477 -28,17 -30,17 -43,0 z"
           inkscape:connector-curvature="0"
           style="fill:#ffffff" />
      </g>
    </clipPath>
  </defs>
  <sodipodi:namedview
     inkscape:window-maximized="1"
     inkscape:window-y="27"
     inkscape:window-x="0"
     inkscape:window-height="836"
     inkscape:window-width="1600"
     showgrid="true"
     inkscape:document-rotation="0"
     inkscape:current-layer="layer1"
     inkscape:document-units="px"
     inkscape:cy="257.54422"
     inkscape:cx="337.8488"
     inkscape:zoom="0.49497475"
     inkscape:pageshadow="2"
     inkscape:pageopacity="0.0"
     borderopacity="1.0"
     bordercolor="#666666"
     pagecolor="#ffffff"
     id="base">
    <inkscape:grid
       type="xygrid"
       id="grid48" />
  </sodipodi:namedview>
  <metadata
     id="metadata42">
    <rdf:RDF>
      <cc:Work
         rdf:about="">
        <dc:format>image/svg+xml</dc:format>
        <dc:type
           rdf:resource="http://purl.org/dc/dcmitype/StillImage" />
        <dc:title></dc:title>
      </cc:Work>
    </rdf:RDF>
  </metadata>
  <g
     id="layer1"
     inkscape:groupmode="layer"
     inkscape:label="Layer 1">
    <circle
       transform="matrix(0.36360151,0,0,0.36360151,-1548.1791,-117.45504)"
       clip-path="url(#clipPath69)"
       r="954.59418"
       cy="793.62177"
       cx="5274.1328"
       id="path67"
       style="opacity:1;fill:#ffffff;fill-opacity:1;stroke:none;stroke-width:9;stroke-miterlimit:4;stroke-dasharray:none;stroke-opacity:1" />
  </g>
</svg>
